<?xml version="1.0" encoding="UTF-8" standalone="no"?>
<svg
   xmlns:dc="http://purl.org/dc/elements/1.1/"
   xmlns:cc="http://creativecommons.org/ns#"
   xmlns:rdf="http://www.w3.org/1999/02/22-rdf-syntax-ns#"
   xmlns:svg="http://www.w3.org/2000/svg"
   xmlns="http://www.w3.org/2000/svg"
   width="500"
   height="500"
   viewBox="0 0 500.00001 500.00001"
   id="svg2"
   version="1.1">
  <defs
     id="defs4" />
  <metadata
     id="metadata7">
    <rdf:RDF>
      <cc:Work
         rdf:about="">
        <dc:format>image/svg+xml</dc:format>
        <dc:type
           rdf:resource="http://purl.org/dc/dcmitype/StillImage" />
        <dc:title></dc:title>
      </cc:Work>
    </rdf:RDF>
  </metadata>
  <g
     transform="translate(0,-26)"
     id="text3341"
     style="font-style:normal;font-weight:normal;font-size:42.44537354px;line-height:125%;font-family:sans-serif;letter-spacing:0px;word-spacing:0px;fill:#000000;fill-opacity:1;stroke:none;stroke-width:1px;stroke-linecap:butt;stroke-linejoin:miter;stroke-opacity:1">
    <path
       id="path3400"
       style="font-style:normal;font-variant:normal;font-weight:normal;font-stretch:condensed;font-size:265.28356934px;font-family:Impact;-inkscape-font-specification:'Impact Condensed'"
       d="m 120.25651,106.98909 31.21745,209.71391 -55.828718,0 -2.720193,-37.6941 -19.559482,0 -3.238324,37.6941 -56.476385,0 27.72006,-209.71391 78.885592,0 z M 91.370653,241.83293 q -4.145055,-35.62157 -8.290111,-87.9529 -8.290112,60.10331 -10.36264,87.9529 l 18.652751,0 z" />
    <path
       id="path3402"
       style="font-style:normal;font-variant:normal;font-weight:normal;font-stretch:condensed;font-size:265.28356934px;font-family:Impact;-inkscape-font-specification:'Impact Condensed'"
       d="m 211.57727,106.98909 0,49.61113 q 6.47665,-7.51291 14.37816,-11.13983 8.03105,-3.75646 17.35742,-3.75646 10.75124,0 18.65275,3.36786 7.90151,3.36786 12.04657,9.45591 4.14506,6.08805 4.92225,11.91703 0.90674,5.82899 0.90674,24.87034 l 0,77.46073 q 0,18.91181 -2.59066,28.23819 -2.46113,9.19684 -11.78751,16.06209 -9.32637,6.73571 -22.15014,6.73571 -9.19684,0 -17.22789,-4.01552 -7.90151,-4.01552 -14.50769,-12.04657 l -3.36786,12.9533 -48.96347,0 0,-209.71391 52.33133,0 z m 15.93256,86.65757 q 0,-13.3419 -1.68393,-17.35742 -1.68393,-4.14506 -6.60619,-4.14506 -4.79272,0 -6.21758,3.62693 -1.42486,3.49739 -1.42486,17.87555 l 0,74.09287 q 0,13.86003 1.55439,17.74602 1.68393,3.88599 6.47665,3.88599 4.92226,0 6.34712,-4.01552 1.5544,-4.01552 1.5544,-19.30042 l 0,-72.40894 z" />
    <path
       id="path3404"
       style="font-style:normal;font-variant:normal;font-weight:normal;font-stretch:condensed;font-size:265.28356934px;font-family:Impact;-inkscape-font-specification:'Impact Condensed'"
       d="m 412.74201,209.70875 -49.35207,0 0,-19.81855 q 0,-10.36264 -1.68393,-13.98956 -1.68393,-3.75646 -6.21759,-3.75646 -4.53365,0 -6.08805,3.23833 -1.55439,3.23832 -1.55439,14.50769 l 0,81.08766 q 0,9.19684 2.33159,13.86003 2.33159,4.53365 6.86525,4.53365 5.31085,0 7.12431,-4.79272 1.943,-4.79272 1.943,-18.13462 l 0,-20.46621 46.63188,0 q -0.12954,20.59574 -1.5544,30.95838 -1.29533,10.23311 -8.67871,21.11388 -7.25385,10.75124 -19.04135,16.32116 -11.7875,5.44038 -29.14492,5.44038 -22.15015,0 -35.10344,-7.51291 -12.9533,-7.64245 -18.39369,-21.24341 -5.31085,-13.7305 -5.31085,-38.8599 l 0,-48.83394 q 0,-21.89107 4.40412,-33.03091 4.40412,-11.13984 18.78228,-19.81855 14.37817,-8.80824 34.97391,-8.80824 20.46621,0 34.97391,8.67871 14.50769,8.67871 19.30042,21.89108 4.79272,13.21236 4.79272,37.43503 z" />
    <path
       id="path3406"
       style="font-style:normal;font-variant:normal;font-weight:normal;font-stretch:condensed;font-size:198.962677px;font-family:Impact;-inkscape-font-specification:'Impact Condensed';baseline-shift:super"
       d="m 486.34914,53.30414 0,157.28544 -39.24849,0 0,-84.32598 q 0,-18.26415 -0.87435,-21.95584 -0.87435,-3.69169 -4.85749,-5.537539 -3.88599,-1.942995 -17.48695,-1.942995 l -3.88599,0 0,-18.361302 Q 448.46074,72.34549 463.2275,53.30414 l 23.12164,0 z" />
  </g>
  <g
     transform="translate(0,24)"
     id="text3349"
     style="font-style:normal;font-variant:normal;font-weight:normal;font-stretch:condensed;font-size:106.11342621px;line-height:125%;font-family:impact;-inkscape-font-specification:'impact Condensed';letter-spacing:0px;word-spacing:0px;fill:#000000;fill-opacity:1;stroke:none;stroke-width:1px;stroke-linecap:butt;stroke-linejoin:miter;stroke-opacity:1">
    <path
       id="path3409"
       d="m 42.384513,361.56677 0,83.88556 -20.932531,0 0,-44.97385 q 0,-9.74088 -0.466319,-11.70979 -0.466319,-1.9689 -2.59066,-2.95335 -2.072528,-1.03626 -9.3263753,-1.03626 l -2.0725279,0 0,-9.7927 Q 22.177366,371.72215 30.052972,361.56677 l 12.331541,0 z" />
    <path
       id="path3411"
       d="m 69.586437,361.56677 36.942813,0 0,16.78747 -15.129457,0 0,15.90665 13.471427,0 0,15.95847 -13.471427,0 0,35.23297 -21.813356,0 0,-83.88556 z" />
    <path
       id="path3413"
       d="m 158.60151,400.84117 0,16.83929 q 0,9.27456 -0.93264,13.62687 -0.93263,4.30049 -3.98961,8.08286 -3.05698,3.73055 -7.87561,5.54401 -4.76681,1.76165 -10.9844,1.76165 -6.94296,0 -11.76159,-1.50258 -4.81863,-1.5544 -7.51291,-4.61138 -2.64248,-3.10879 -3.78237,-7.4611 -1.13989,-4.40412 -1.13989,-13.16055 l 0,-17.61649 q 0,-9.58544 2.07253,-14.97401 2.07253,-5.38857 7.4611,-8.65281 5.38857,-3.26423 13.78231,-3.26423 7.04659,0 12.07247,2.12434 5.0777,2.07253 7.8238,5.44039 2.7461,3.36786 3.73055,6.94297 1.03626,3.57511 1.03626,10.88077 z m -20.93253,-5.18132 q 0,-5.28495 -0.56994,-6.63209 -0.56995,-1.39896 -2.43523,-1.39896 -1.86527,0 -2.48703,1.39896 -0.62176,1.34714 -0.62176,6.63209 l 0,31.0361 q 0,4.87044 0.62176,6.37303 0.62176,1.45077 2.43522,1.45077 1.86528,0 2.43522,-1.34715 0.62176,-1.34714 0.62176,-5.80307 l 0,-31.70968 z" />
    <path
       id="path3415"
       d="m 212.90174,400.84117 0,16.83929 q 0,9.27456 -0.93263,13.62687 -0.93264,4.30049 -3.98962,8.08286 -3.05698,3.73055 -7.87561,5.54401 -4.76681,1.76165 -10.98439,1.76165 -6.94297,0 -11.7616,-1.50258 -4.81863,-1.5544 -7.51291,-4.61138 -2.64248,-3.10879 -3.78237,-7.4611 -1.13989,-4.40412 -1.13989,-13.16055 l 0,-17.61649 q 0,-9.58544 2.07253,-14.97401 2.07253,-5.38857 7.4611,-8.65281 5.38857,-3.26423 13.78231,-3.26423 7.0466,0 12.07248,2.12434 5.07769,2.07253 7.82379,5.44039 2.7461,3.36786 3.73055,6.94297 1.03626,3.57511 1.03626,10.88077 z m -20.93253,-5.18132 q 0,-5.28495 -0.56994,-6.63209 -0.56995,-1.39896 -2.43522,-1.39896 -1.86528,0 -2.48704,1.39896 -0.62175,1.34714 -0.62175,6.63209 l 0,31.0361 q 0,4.87044 0.62175,6.37303 0.62176,1.45077 2.43522,1.45077 1.86528,0 2.43522,-1.34715 0.62176,-1.34714 0.62176,-5.80307 l 0,-31.70968 z" />
    <path
       id="path3417"
       d="m 241.91712,367.52528 0,10.82896 5.64764,0 0,10.88077 -5.64764,0 0,36.78737 q 0,6.78753 0.67357,7.56473 0.72539,0.7772 5.85489,0.7772 l 0,11.08802 -8.44555,0 q -7.15022,0 -10.2072,-0.56994 -3.05698,-0.62176 -5.38857,-2.7461 -2.33159,-2.17616 -2.90154,-4.92226 -0.56994,-2.79791 -0.56994,-13.05692 l 0,-34.9221 -4.50775,0 0,-10.88077 4.50775,0 0,-10.82896 20.98434,0 z" />
    <path
       id="path3419"
       d="m 273.47136,376.69622 -0.36269,6.32121 q 2.27978,-3.78236 5.54401,-5.64764 3.31604,-1.91709 7.61654,-1.91709 5.38857,0 8.80824,2.53885 3.41967,2.53885 4.40412,6.42484 0.98445,3.83417 0.98445,12.84967 l 0,48.18627 -20.93253,0 0,-47.61633 q 0,-7.0984 -0.46632,-8.6528 -0.46631,-1.5544 -2.59066,-1.5544 -2.22796,0 -2.79791,1.81347 -0.56994,1.76164 -0.56994,9.53362 l 0,46.47644 -20.93254,0 0,-68.75611 21.29523,0 z" />
    <path
       id="path3421"
       d="m 355.07714,400.84117 0,16.83929 q 0,9.27456 -0.93263,13.62687 -0.93264,4.30049 -3.98962,8.08286 -3.05698,3.73055 -7.87561,5.54401 -4.76681,1.76165 -10.98439,1.76165 -6.94297,0 -11.7616,-1.50258 -4.81863,-1.5544 -7.51291,-4.61138 -2.64248,-3.10879 -3.78237,-7.4611 -1.13989,-4.40412 -1.13989,-13.16055 l 0,-17.61649 q 0,-9.58544 2.07253,-14.97401 2.07253,-5.38857 7.4611,-8.65281 5.38857,-3.26423 13.78231,-3.26423 7.0466,0 12.07248,2.12434 5.07769,2.07253 7.82379,5.44039 2.7461,3.36786 3.73055,6.94297 1.03626,3.57511 1.03626,10.88077 z m -20.93253,-5.18132 q 0,-5.28495 -0.56994,-6.63209 -0.56995,-1.39896 -2.43522,-1.39896 -1.86528,0 -2.48704,1.39896 -0.62176,1.34714 -0.62176,6.63209 l 0,31.0361 q 0,4.87044 0.62176,6.37303 0.62176,1.45077 2.43522,1.45077 1.86528,0 2.43522,-1.34715 0.62176,-1.34714 0.62176,-5.80307 l 0,-31.70968 z" />
    <path
       id="path3423"
       d="m 384.09254,367.52528 0,10.82896 5.64763,0 0,10.88077 -5.64763,0 0,36.78737 q 0,6.78753 0.67357,7.56473 0.72538,0.7772 5.85489,0.7772 l 0,11.08802 -8.44555,0 q -7.15022,0 -10.2072,-0.56994 -3.05698,-0.62176 -5.38857,-2.7461 -2.3316,-2.17616 -2.90154,-4.92226 -0.56995,-2.79791 -0.56995,-13.05692 l 0,-34.9221 -4.50775,0 0,-10.88077 4.50775,0 0,-10.82896 20.98435,0 z" />
    <path
       id="path3425"
       d="m 441.76064,412.29189 -27.0983,0 0,14.87038 q 0,4.66319 0.67357,6.01033 0.67357,1.34715 2.59066,1.34715 2.38341,0 3.1606,-1.76165 0.82902,-1.81346 0.82902,-6.94297 l 0,-9.06731 19.84445,0 0,5.07769 q 0,6.37303 -0.82901,9.7927 -0.7772,3.41967 -3.73055,7.30566 -2.95335,3.88599 -7.51291,5.85489 -4.50775,1.91709 -11.34709,1.91709 -6.63209,0 -11.70979,-1.91709 -5.07769,-1.91709 -7.92742,-5.23313 -2.79791,-3.36786 -3.88599,-7.35748 -1.08807,-4.04143 -1.08807,-11.70978 l 0,-20.05171 q 0,-9.01549 2.43522,-14.19681 2.43522,-5.23313 7.97923,-7.97923 5.54401,-2.79792 12.74605,-2.79792 8.80824,0 14.50769,3.36786 5.75127,3.31605 8.03105,8.86006 2.33159,5.4922 2.33159,15.49214 l 0,9.11913 z m -20.98434,-11.19165 0,-5.02588 q 0,-5.33676 -0.56995,-6.89116 -0.56994,-1.5544 -2.33159,-1.5544 -2.17616,0 -2.69429,1.34715 -0.51813,1.29533 -0.51813,7.09841 l 0,5.02588 6.11396,0 z" />
    <path
       id="path3427"
       d="m 491.39765,398.66502 -18.54912,0 0,-3.73055 q 0,-4.76682 -0.56995,-6.01034 -0.51813,-1.29533 -2.69428,-1.29533 -1.76165,0 -2.64248,1.19171 -0.88082,1.13989 -0.88082,3.47148 0,3.16061 0.41451,4.66319 0.46631,1.45077 2.64247,3.21242 2.22797,1.76165 9.06731,5.1295 9.11912,4.45594 11.96885,8.39374 2.84972,3.93781 2.84972,11.45072 0,8.39374 -2.17615,12.69423 -2.17616,4.24868 -7.30566,6.58028 -5.0777,2.27978 -12.27973,2.27978 -7.97923,0 -13.67868,-2.48704 -5.64764,-2.48703 -7.77198,-6.73571 -2.12434,-4.24868 -2.12434,-12.84967 l 0,-3.31605 18.54912,0 0,4.35231 q 0,5.54401 0.67357,7.20203 0.72539,1.65803 2.79791,1.65803 2.22797,0 3.1088,-1.08808 0.88082,-1.13989 0.88082,-4.715 0,-4.92225 -1.13989,-6.16577 -1.1917,-1.24352 -12.1761,-7.35748 -9.22275,-5.18131 -11.24346,-9.37818 -2.02072,-4.24869 -2.02072,-10.05176 0,-8.2383 2.17615,-12.12429 2.17616,-3.9378 7.35748,-6.06215 5.23313,-2.12434 12.12429,-2.12434 6.83934,0 11.60615,1.76165 4.81863,1.70984 7.35748,4.55956 2.59066,2.84973 3.10879,5.28495 0.56994,2.43522 0.56994,7.61654 l 0,3.98962 z" />
  </g>
</svg>
