<?xml version="1.0" encoding="utf-8"?>
<!-- Generator: Adobe Illustrator 24.2.1, SVG Export Plug-In . SVG Version: 6.00 Build 0)  -->
<svg version="1.1"
	 id="svg2" xmlns:cc="http://creativecommons.org/ns#" xmlns:dc="http://purl.org/dc/elements/1.1/"
	 xmlns:rdf="http://www.w3.org/1999/02/22-rdf-syntax-ns#" xmlns:svg="http://www.w3.org/2000/svg"
	 xmlns="http://www.w3.org/2000/svg" xmlns:xlink="http://www.w3.org/1999/xlink" x="0px" y="0px"
	 viewBox="0 0 544.2 544.2"
	 style="enable-background:new 0 0 544.2 544.2;" xml:space="preserve">
<g>
	<path style="fill:#23682B;"
		  d="M272.1,0C2.1,0,0,121.8,0,272.1s2.1,272.1,272.1,272.1s272.1-121.8,272.1-272.1S542.1,0,272.1,0z"/>
	<g>
		<path style="fill:#FFFFFF;" d="M240.3,218.5c-17.6-10-30.5-17.7-43.8-24.8c-20.4-10.9-39-7-48.1,9.8c-9.2,17.1-3,34,17.1,46.3
			c12.7,7.7,25.5,15.3,40.8,24.4c-16.9,10-30.6,17.8-44.1,26c-19.5,11.9-25.6,30.2-15.9,46.6c9.7,16.3,28.1,19.6,48.3,8.5
			c14.1-7.8,28.1-15.9,45.6-25.8c0,19.9-0.4,35,0.1,50.2c0.7,23.3,12.9,36.7,32.7,36.5c19.7-0.2,31.9-14,32.3-37.1
			c0.3-14.8,0-29.7,0-47.8c17.4,9.8,31.1,17.5,44.8,25.1c19.9,11,36.8,8.3,46.9-7.6c10.2-16,4.6-35.6-14.2-47.3
			c-14.4-9-29.2-17.3-46.7-27.7c15.5-9.2,28.4-16.7,41.3-24.4c21.4-12.8,28-30.5,17.9-47.5s-28.7-20-50.4-8
			c-12.3,6.8-24.6,13.8-39.8,22.3c0-19.4,0.2-34.6-0.1-49.7c-0.4-23.8-13.9-39.3-33.3-38.6c-19.1,0.7-31.3,15.1-31.8,38.4
			C240.1,182.3,240.3,198.1,240.3,218.5z"/>
	</g>
</g>
</svg>
